<svg xmlns="http://www.w3.org/2000/svg" viewBox="0 0 128 128" shape-rendering="crispEdges"><rect width="128" height="128" rx="24" fill="#fff4d6"/><path d="M24 70c0-31 23-50 55-43 30 7 43 35 28 58-15 23-52 30-72 12-7-7-11-15-11-27z" fill="#ff9c1a" stroke="#221006" stroke-width="6"/><path d="M38 51h60M31 70h75M40 90h51M55 33c-14 25-14 49 0 70M78 35c-9 26-9 48 3 66" stroke="#ffe8ad" stroke-width="5" fill="none" stroke-linecap="round"/><path d="M77 24c9-16 25-18 36-12-2 16-16 23-35 18z" fill="#48c55a" stroke="#221006" stroke-width="5"/></svg>
