<svg xmlns="http://www.w3.org/2000/svg" viewBox="0 0 224 224" shape-rendering="crispEdges"><rect width="32" height="32" x="0" y="0" fill="#0710a8"/><rect width="32" height="32" x="32" y="0" fill="#00d5ff"/><rect width="32" height="32" x="64" y="0" fill="#70ff70"/><rect width="32" height="32" x="96" y="0" fill="#ff8a00"/><rect width="32" height="32" x="128" y="0" fill="#d90000"/><rect width="32" height="32" x="160" y="0" fill="#ff0000"/><rect width="32" height="32" x="192" y="0" fill="#00aaff"/><rect width="32" height="32" x="0" y="32" fill="#00c4ff"/><rect width="32" height="32" x="32" y="32" fill="#b8ff2e"/><rect width="32" height="32" x="64" y="32" fill="#fff238"/><rect width="32" height="32" x="96" y="32" fill="#40ffc0"/><rect width="32" height="32" x="128" y="32" fill="#00aaff"/><rect width="32" height="32" x="160" y="32" fill="#0000ff"/><rect width="32" height="32" x="192" y="32" fill="#004fff"/><rect width="32" height="32" x="0" y="64" fill="#0088ff"/><rect width="32" height="32" x="32" y="64" fill="#a6ff3f"/><rect width="32" height="32" x="64" y="64" fill="#ffc400"/><rect width="32" height="32" x="96" y="64" fill="#66ff91"/><rect width="32" height="32" x="128" y="64" fill="#001dff"/><rect width="32" height="32" x="160" y="64" fill="#0710a8"/><rect width="32" height="32" x="192" y="64" fill="#0710a8"/><rect width="32" height="32" x="0" y="96" fill="#001dff"/><rect width="32" height="32" x="32" y="96" fill="#40ffc0"/><rect width="32" height="32" x="64" y="96" fill="#b8ff2e"/><rect width="32" height="32" x="96" y="96" fill="#00e0e0"/><rect width="32" height="32" x="128" y="96" fill="#0000ff"/><rect width="32" height="32" x="160" y="96" fill="#0710a8"/><rect width="32" height="32" x="192" y="96" fill="#0000ff"/><rect width="32" height="32" x="0" y="128" fill="#0710a8"/><rect width="32" height="32" x="32" y="128" fill="#0000cc"/><rect width="32" height="32" x="64" y="128" fill="#001dff"/><rect width="32" height="32" x="96" y="128" fill="#0000cc"/><rect width="32" height="32" x="128" y="128" fill="#004fff"/><rect width="32" height="32" x="160" y="128" fill="#0099ff"/><rect width="32" height="32" x="192" y="128" fill="#00e0e0"/><rect width="32" height="32" x="0" y="160" fill="#0710a8"/><rect width="32" height="32" x="32" y="160" fill="#0710a8"/><rect width="32" height="32" x="64" y="160" fill="#0710a8"/><rect width="32" height="32" x="96" y="160" fill="#0710a8"/><rect width="32" height="32" x="128" y="160" fill="#001dff"/><rect width="32" height="32" x="160" y="160" fill="#0088ff"/><rect width="32" height="32" x="192" y="160" fill="#0710a8"/><rect width="32" height="32" x="0" y="192" fill="#0710a8"/><rect width="32" height="32" x="32" y="192" fill="#0710a8"/><rect width="32" height="32" x="64" y="192" fill="#0710a8"/><rect width="32" height="32" x="96" y="192" fill="#0710a8"/><rect width="32" height="32" x="128" y="192" fill="#0000ff"/><rect width="32" height="32" x="160" y="192" fill="#0088ff"/><rect width="32" height="32" x="192" y="192" fill="#00d5ff"/></svg>
